<svg xmlns="http://www.w3.org/2000/svg" viewBox="0 0 600 150" width="100%" height="100%">
  <defs>
    <style>
      @import url('https://fonts.googleapis.com/css2?family=Montserrat:wght@600;800&amp;display=swap');
      .text-primary { font-family: 'Montserrat', sans-serif; font-weight: 800; font-size: 68px; fill: #ffffff; letter-spacing: 1px; }
      .text-secondary { font-family: 'Montserrat', sans-serif; font-weight: 600; font-size: 20px; fill: #ffffff; letter-spacing: 5px; }
      .icon-primary { fill: #ffffff; }
      .icon-secondary { fill: #ffb400; }
    </style>
  </defs>

  <!-- Water Drop with Cutout -->
  <path class="icon-primary" fill-rule="evenodd" d="M 75 15 C 75 15, 30 75, 30 100 A 45 45 0 0 0 120 100 C 120 75, 75 15, 75 15 Z M 75 35 C 75 35, 105 80, 105 100 A 30 30 0 0 1 45 100 C 45 80, 75 35, 75 35 Z" />
  
  <!-- Inner Drop -->
  <path class="icon-secondary" d="M 75 50 C 75 50, 55 85, 55 100 A 20 20 0 0 0 95 100 C 95 85, 75 50, 75 50 Z" />

  <!-- Sparkles -->
  <path class="icon-secondary" d="M 115 25 Q 120 40 135 45 Q 120 50 115 65 Q 110 50 95 45 Q 110 40 115 25 Z" />
  <path class="icon-secondary" d="M 35 40 Q 38 50 48 53 Q 38 56 35 66 Q 32 56 22 53 Q 32 50 35 40 Z" />

  <!-- Text -->
  <text x="145" y="85" class="text-primary">JAGAN</text>
  <text x="150" y="120" class="text-secondary">TECHNICAL SERVICES</text>
</svg>