<svg xmlns="http://www.w3.org/2000/svg" viewBox="0 0 750 150" width="100%" height="100%">
  <defs>
    <style>
      @import url('https://fonts.googleapis.com/css2?family=Montserrat:wght@600;800&amp;display=swap');
    </style>
  </defs>
  <!-- Icon Group -->
  <g transform="translate(10, 0)">
    <!-- Dark Blue Leaf with House Cutout -->
    <path fill-rule="evenodd" d="M 120 140 C 20 140 20 30 90 30 C 60 60 60 100 110 115 Z M 75 80 L 115 50 L 155 80 L 145 80 L 145 125 L 85 125 L 85 80 Z" fill="#06278a" />
    
    <!-- Light Blue Flame with House Cutout -->
    <path fill-rule="evenodd" d="M 100 10 C 140 30 160 60 160 100 C 160 130 120 140 100 140 C 130 120 130 70 100 10 Z M 75 80 L 115 50 L 155 80 L 145 80 L 145 125 L 85 125 L 85 80 Z" fill="#1239ac" />
    
    <!-- House Details -->
    <circle cx="115" cy="65" r="5" fill="#1239ac" />
    <rect x="105" y="100" width="20" height="25" fill="#1239ac" />
  </g>
  
  <!-- Text Group -->
  <text x="180" y="85" font-family="'Montserrat', sans-serif" font-weight="800" font-size="40" fill="#06278a" letter-spacing="1">JAGAN KASARAPU</text>
  <text x="183" y="118" font-family="'Montserrat', sans-serif" font-weight="600" font-size="16" fill="#1239ac">TECHNICAL AND CLEANING SERVICES L.L.C</text>
</svg>